<?xml version="1.0" encoding="UTF-8"?>
<svg version="1.1" xmlns="http://www.w3.org/2000/svg" width="113" height="113">
<path d="M0 0 C37.29 0 74.58 0 113 0 C113 37.29 113 74.58 113 113 C75.71 113 38.42 113 0 113 C0 75.71 0 38.42 0 0 Z " fill="#AA7339" transform="translate(0,0)"/>
<path d="M0 0 C37.29 0 74.58 0 113 0 C113 37.29 113 74.58 113 113 C75.71 113 38.42 113 0 113 C0 75.71 0 38.42 0 0 Z M36 7 C34.72125 6.938125 33.4425 6.87625 32.125 6.8125 C28.78066933 6.74549155 28.22054292 6.82786894 25.4375 9 C23.78816385 12.44209284 24.19995084 14.16954304 24.89453125 17.828125 C25.05831574 21.20087217 23.66417114 23.60516609 22.10546875 26.53125 C19.05424917 33.34528101 18.72042466 39.84668554 18.8046875 47.1875 C18.80893234 48.60216553 18.80893234 48.60216553 18.81326294 50.04541016 C18.82437558 53.03040756 18.84946328 56.01509469 18.875 59 C18.88504134 61.03515189 18.89416516 63.07030852 18.90234375 65.10546875 C18.92428565 70.07043037 18.95875327 75.03516275 19 80 C18.32525635 80.12334717 17.6505127 80.24669434 16.95532227 80.3737793 C16.06385498 80.54304932 15.1723877 80.71231934 14.25390625 80.88671875 C13.3729126 81.05131592 12.49191895 81.21591309 11.58422852 81.38549805 C7.70931635 82.30691079 5.20490957 83.61336521 2 86 C0.95489639 88.62102997 0.95489639 88.62102997 1 91 C7.08730229 96.5166177 14.3351944 98.37556407 22.2421875 99.66015625 C23.01480927 99.78608658 23.78743103 99.91201691 24.58346558 100.04176331 C33.74599789 101.41505802 42.8775773 101.50372975 52.125 101.4375 C53.01476532 101.43479095 53.90453064 101.43208191 54.82125854 101.42929077 C65.66611864 101.3793447 76.33958225 101.06446938 87.0625 99.3125 C87.98111816 99.16417725 88.89973633 99.01585449 89.84619141 98.86303711 C95.54316467 97.75261012 100.5457518 95.82642928 105 92 C106.12213894 89.34148231 106.12213894 89.34148231 106 87 C102.35049162 84.21484886 99.20512376 82.62895924 94.7734375 81.36328125 C93.43031494 80.97523315 93.43031494 80.97523315 92.06005859 80.5793457 C91.38023926 80.38816162 90.70041992 80.19697754 90 80 C90.01571045 78.82083008 90.0314209 77.64166016 90.04760742 76.42675781 C90.10243047 71.99860627 90.1365382 67.57048393 90.16479492 63.14208984 C90.17976338 61.23546279 90.20014546 59.32886945 90.22631836 57.42236328 C90.39438918 44.85330218 89.60477881 34.16990841 85.3125 22.25 C84.23951714 19.22363809 83.87751867 16.83284424 84 13.625 C84.27019155 10.1677051 84.27019155 10.1677051 83 8 C80.29427233 6.64713617 77.87003509 6.96927856 74.90625 7.08203125 C72.20224862 6.96567053 71.07092945 5.69439682 69 4 C58.88574328 -0.82874192 44.43431298 -1.43431298 36 7 Z " fill="green" transform="translate(0,0)"/>
<path d="M0 0 C0 3.63 0 7.26 0 11 C23.43 11 46.86 11 71 11 C71 7.7 71 4.4 71 1 C76.78105283 0.5182456 81.29390041 1.4072947 86 5 C87 7.75 87 7.75 87 10 C80.72453906 15.87059249 72.4879892 17.38557048 64.22265625 18.6640625 C63.40902115 18.79019928 62.59538605 18.91633606 61.75709534 19.04629517 C53.18997072 20.26848328 44.68036651 20.45449634 36.03833008 20.39111328 C33.43452807 20.37498159 30.83227234 20.39110616 28.22851562 20.41015625 C-4.68807196 20.45119962 -4.68807196 20.45119962 -16.81640625 11.6875 C-18 10 -18 10 -17.9765625 7.48828125 C-16.39133056 3.44911028 -13.43479224 2.6747608 -9.65625 0.9375 C-6.16428119 -0.29495958 -3.65717672 -0.39751921 0 0 Z " fill="#683505" transform="translate(19,81)"/>
<path d="M0 0 C1.4540625 0.0309375 1.4540625 0.0309375 2.9375 0.0625 C2.916875 1.135 2.89625 2.2075 2.875 3.3125 C2.75903751 6.8119199 2.75903751 6.8119199 3.55078125 9.05078125 C4.05308826 11.66379246 3.4217518 12.67012612 2.1875 15 C-0.59238723 20.77212696 -1.7878976 26.81501703 -3.0625 33.0625 C-5.7025 33.0625 -8.3425 33.0625 -11.0625 33.0625 C-11.0625 35.0425 -11.0625 37.0225 -11.0625 39.0625 C-8.7525 39.3925 -6.4425 39.7225 -4.0625 40.0625 C-4.0625 42.7025 -4.0625 45.3425 -4.0625 48.0625 C-7.5275 48.5575 -7.5275 48.5575 -11.0625 49.0625 C-11.3925 51.3725 -11.7225 53.6825 -12.0625 56.0625 C-14.7025 56.0625 -17.3425 56.0625 -20.0625 56.0625 C-20.0625 53.4225 -20.0625 50.7825 -20.0625 48.0625 C-17.4225 48.0625 -14.7825 48.0625 -12.0625 48.0625 C-12.0625 45.4225 -12.0625 42.7825 -12.0625 40.0625 C-14.7025 40.0625 -17.3425 40.0625 -20.0625 40.0625 C-20.10491723 37.72955225 -20.10342937 35.39547433 -20.0625 33.0625 C-19.0625 32.0625 -19.0625 32.0625 -15.5 32 C-14.365625 32.020625 -13.23125 32.04125 -12.0625 32.0625 C-12.0625 29.4225 -12.0625 26.7825 -12.0625 24.0625 C-14.7025 24.0625 -17.3425 24.0625 -20.0625 24.0625 C-20.0625 21.0925 -20.0625 18.1225 -20.0625 15.0625 C-17.4225 15.0625 -14.7825 15.0625 -12.0625 15.0625 C-12.0625 12.4225 -12.0625 9.7825 -12.0625 7.0625 C-9.4225 7.0625 -6.7825 7.0625 -4.0625 7.0625 C-4.083125 6.093125 -4.10375 5.12375 -4.125 4.125 C-4.0425 0.0825 -4.0425 0.0825 0 0 Z " fill="green" transform="translate(22.0625,8.9375)"/>
<path d="M0 0 C0.71623535 0.0714624 1.4324707 0.1429248 2.17041016 0.21655273 C14.56134919 1.28441554 26.94855716 1.11001814 39.375 1.0625 C41.67187402 1.05747437 43.96874911 1.05291335 46.265625 1.04882812 C51.8437736 1.03790811 57.4218817 1.02125447 63 1 C60 3 60 3 57 3 C57 3.99 57 4.98 57 6 C54.36 6 51.72 6 49 6 C49 5.34 49 4.68 49 4 C46.36 4 43.72 4 41 4 C41 4.66 41 5.32 41 6 C38.36 6 35.72 6 33 6 C33 5.34 33 4.68 33 4 C30.36 4 27.72 4 25 4 C24.67 4.99 24.34 5.98 24 7 C22.02 7 20.04 7 18 7 C17.67 9.31 17.34 11.62 17 14 C8.75 14 0.5 14 -8 14 C-8 11.36 -8 8.72 -8 6 C-5.36 6 -2.72 6 0 6 C0 4.02 0 2.04 0 0 Z " fill="green" transform="translate(18,99)"/>
<path d="M0 0 C1.98 0 3.96 0 6 0 C6 7.92 6 15.84 6 24 C4.02 24 2.04 24 0 24 C0 21.69 0 19.38 0 17 C-2.31 17.33 -4.62 17.66 -7 18 C-7.66 20.31 -8.32 22.62 -9 25 C-10.98 25.33 -12.96 25.66 -15 26 C-15.33 28.31 -15.66 30.62 -16 33 C-16.99 32.67 -17.98 32.34 -19 32 C-19.33 29.69 -19.66 27.38 -20 25 C-18.68 24.67 -17.36 24.34 -16 24 C-16 21.36 -16 18.72 -16 16 C-13.36 16 -10.72 16 -8 16 C-8 13.36 -8 10.72 -8 8 C-5.36 8 -2.72 8 0 8 C0 5.36 0 2.72 0 0 Z M-8 24 C-5.36 24 -2.72 24 0 24 C0 26.64 0 29.28 0 32 C-2.64 32 -5.28 32 -8 32 C-8 29.36 -8 26.72 -8 24 Z " fill="green" transform="translate(107,0)"/>
<path d="M0 0 C5.94 0 11.88 0 18 0 C18 2.64 18 5.28 18 8 C15.36 8 12.72 8 10 8 C10 10.64 10 13.28 10 16 C7.36 16 4.72 16 2 16 C2 18.64 2 21.28 2 24 C1.34 24.33 0.68 24.66 0 25 C0 16.75 0 8.5 0 0 Z " fill="green" transform="translate(0,0)"/>
<path d="M0 0 C0.94875 0.04125 1.8975 0.0825 2.875 0.125 C3.205 2.765 3.535 5.405 3.875 8.125 C5.525 8.125 7.175 8.125 8.875 8.125 C8.875 10.765 8.875 13.405 8.875 16.125 C6.895 16.455 4.915 16.785 2.875 17.125 C2.875 14.155 2.875 11.185 2.875 8.125 C0.565 8.455 -1.745 8.785 -4.125 9.125 C-4.455 11.435 -4.785 13.745 -5.125 16.125 C-7.435 16.455 -9.745 16.785 -12.125 17.125 C-12.455 19.435 -12.785 21.745 -13.125 24.125 C-13.455 24.125 -13.785 24.125 -14.125 24.125 C-14.125 18.845 -14.125 13.565 -14.125 8.125 C-11.05609813 6.59054906 -8.42405734 7.57515711 -5.125 8.125 C-5.16625 7.17625 -5.2075 6.2275 -5.25 5.25 C-5.0773465 0.9336624 -4.3163376 0.1726535 0 0 Z " fill="green" transform="translate(104.125,40.875)"/>
<path d="M0 0 C1.134375 0.020625 2.26875 0.04125 3.4375 0.0625 C3.7675 2.3725 4.0975 4.6825 4.4375 7.0625 C6.7475 7.3925 9.0575 7.7225 11.4375 8.0625 C11.4375 10.7025 11.4375 13.3425 11.4375 16.0625 C9.1275 16.3925 6.8175 16.7225 4.4375 17.0625 C4.1075 19.3725 3.7775 21.6825 3.4375 24.0625 C0.7975 24.0625 -1.8425 24.0625 -4.5625 24.0625 C-4.5625 21.4225 -4.5625 18.7825 -4.5625 16.0625 C-1.9225 16.0625 0.7175 16.0625 3.4375 16.0625 C3.4375 13.4225 3.4375 10.7825 3.4375 8.0625 C0.7975 8.0625 -1.8425 8.0625 -4.5625 8.0625 C-4.60491723 5.72955225 -4.60342937 3.39547433 -4.5625 1.0625 C-3.5625 0.0625 -3.5625 0.0625 0 0 Z " fill="green" transform="translate(6.5625,40.9375)"/>
<path d="M0 0 C2.64 0 5.28 0 8 0 C8 2.64 8 5.28 8 8 C5.36 8 2.72 8 0 8 C0 5.36 0 2.72 0 0 Z M-8 8 C-5.36 8 -2.72 8 0 8 C0 10.64 0 13.28 0 16 C-2.64 16 -5.28 16 -8 16 C-8 13.36 -8 10.72 -8 8 Z M-15 12 C-14.67 13.32 -14.34 14.64 -14 16 C-12.02 16 -10.04 16 -8 16 C-8 18.64 -8 21.28 -8 24 C-8.99 24.33 -9.98 24.66 -11 25 C-11.66 25.66 -12.32 26.32 -13 27 C-15.08989546 21.68670645 -16.6112798 17.71271928 -15 12 Z " fill="green" transform="translate(99,0)"/>
<path d="M0 0 C4.5021067 0.78984328 5.94681879 1.89963585 8.5625 5.625 C9.1875 9.125 9.1875 9.125 8.5625 12.625 C6.0625 15.5625 6.0625 15.5625 3.5625 17.625 C3.2325 15.315 2.9025 13.005 2.5625 10.625 C0.9125 10.955 -0.7375 11.285 -2.4375 11.625 C-2.4375 13.605 -2.4375 15.585 -2.4375 17.625 C-6.3125 15.875 -6.3125 15.875 -7.4375 13.625 C-7.80817927 9.10271296 -7.97869588 6.66409608 -5.875 2.625 C-3.4375 0.625 -3.4375 0.625 0 0 Z " fill="#F5F1ED" transform="translate(39.4375,21.375)"/>
<path d="M0 0 C1.90625 0.40625 1.90625 0.40625 4.40625 1.84375 C6.61281919 5.6133057 6.74597585 9.14302643 5.90625 13.40625 C3.90625 15.46875 3.90625 15.46875 1.90625 16.40625 C1.24625 14.09625 0.58625 11.78625 -0.09375 9.40625 C-1.41375 9.73625 -2.73375 10.06625 -4.09375 10.40625 C-4.42375 12.38625 -4.75375 14.36625 -5.09375 16.40625 C-8.09375 15.40625 -8.09375 15.40625 -9.28125 13.71875 C-10.34173545 10.70044526 -10.48364322 8.59037795 -10.09375 5.40625 C-7.58856657 0.60464843 -5.16756232 -0.38563898 0 0 Z " fill="#F9F8F6" transform="translate(69.09375,22.59375)"/>
<path d="M0 0 C0.9796875 -0.01417969 1.959375 -0.02835938 2.96875 -0.04296875 C5.5 0.1875 5.5 0.1875 7.5 2.1875 C7.5 3.1775 7.5 4.1675 7.5 5.1875 C6.51 5.5175 5.52 5.8475 4.5 6.1875 C4.17 6.8475 3.84 7.5075 3.5 8.1875 C2.84 8.1875 2.18 8.1875 1.5 8.1875 C1.83 8.8475 2.16 9.5075 2.5 10.1875 C5.02733235 10.84305119 5.02733235 10.84305119 7.5 11.1875 C5.875 13.6875 5.875 13.6875 3.5 16.1875 C0.375 16.625 0.375 16.625 -2.5 16.1875 C-3.16 15.5275 -3.82 14.8675 -4.5 14.1875 C-6.46690374 13.51457499 -6.46690374 13.51457499 -8.625 13.0625 C-9.90375 12.77375 -11.1825 12.485 -12.5 12.1875 C-12.5 11.8575 -12.5 11.5275 -12.5 11.1875 C-8.045 10.6925 -8.045 10.6925 -3.5 10.1875 C-4.00980961 6.15371634 -4.00980961 6.15371634 -6.5625 4.9375 C-7.201875 4.69 -7.84125 4.4425 -8.5 4.1875 C-8.17 3.1975 -7.84 2.2075 -7.5 1.1875 C-4.89820337 -0.11339831 -2.9030812 0.01909922 0 0 Z " fill="#494340" transform="translate(54.5,42.8125)"/>
<path d="M0 0 C2.31 0 4.62 0 7 0 C7.8498379 2.40336322 8.12609248 3.62938565 7.29296875 6.078125 C6.92816406 6.79484375 6.56335937 7.5115625 6.1875 8.25 C4.16779321 12.46412869 2.99489791 16.44005126 2 21 C1.34 20.01 0.68 19.02 0 18 C-2.32156597 17.59270772 -4.6568787 17.25561323 -7 17 C-8 16 -8 16 -8.09765625 14.15234375 C-8.06510417 12.1015625 -8.03255208 10.05078125 -8 8 C-5.36 8 -2.72 8 0 8 C0 5.36 0 2.72 0 0 Z " fill="green" transform="translate(18,16)"/>
<path d="M0 0 C1.32 0 2.64 0 4 0 C4 5.28 4 10.56 4 16 C-0.62 16 -5.24 16 -10 16 C-10 13.36 -10 10.72 -10 8 C-7.36 8 -4.72 8 -2 8 C-1.855625 6.865625 -1.71125 5.73125 -1.5625 4.5625 C-1 1 -1 1 0 0 Z " fill="green" transform="translate(109,97)"/>
<path d="M0 0 C1.98 0 3.96 0 6 0 C6 2.64 6 5.28 6 8 C4.02 8 2.04 8 0 8 C0 5.36 0 2.72 0 0 Z M0 8 C0.9360342 11.79267192 0.98276252 14.93674565 0.5625 18.8125 C0.46066406 19.78832031 0.35882813 20.76414062 0.25390625 21.76953125 C0.17011719 22.50558594 0.08632812 23.24164063 0 24 C-6.75 26.125 -6.75 26.125 -9 25 C-10.99960012 24.960008 -13.00047242 24.95653201 -15 25 C-15 24.67 -15 24.34 -15 24 C-14.39671875 23.81824219 -13.7934375 23.63648437 -13.171875 23.44921875 C-7.14414802 21.58012094 -7.14414802 21.58012094 -2 18 C-1.94832473 15.57732914 -1.94832473 15.57732914 -3 13 C-6.47307328 11.13016255 -6.47307328 11.13016255 -10 10 C-6.3558226 7.5705484 -4.28758728 7.83820425 0 8 Z " fill="green" transform="translate(107,73)"/>
<path d="M0 0 C13.2 0 26.4 0 40 0 C40.495 3.96 40.495 3.96 41 8 C37.29682289 7.20646205 34.32377464 5.70325528 31 3.9375 C24.62043255 0.94707776 16.76075534 0.94478806 10.0625 2.82421875 C5.11458158 4.75130788 5.11458158 4.75130788 1 8 C0.01 7.67 -0.98 7.34 -2 7 C-1.34 7 -0.68 7 0 7 C0 4.69 0 2.38 0 0 Z " fill="green" transform="translate(35,0)"/>
<path d="M0 0 C0 2.64 0 5.28 0 8 C-2.64 8 -5.28 8 -8 8 C-8 5.69 -8 3.38 -8 1 C-1.125 0 -1.125 0 0 0 Z M-16 8 C-13.36 8 -10.72 8 -8 8 C-8 10.64 -8 13.28 -8 16 C-10.64 16 -13.28 16 -16 16 C-16 13.36 -16 10.72 -16 8 Z " fill="green" transform="translate(99,97)"/>
<path d="M0 0 C2.64 0 5.28 0 8 0 C8 2.31 8 4.62 8 7 C5.36 7 2.72 7 0 7 C0 4.69 0 2.38 0 0 Z M-8 7 C-5.36 7 -2.72 7 0 7 C0 9.64 0 12.28 0 15 C-2.64 15 -5.28 15 -8 15 C-8 12.36 -8 9.72 -8 7 Z " fill="green" transform="translate(10,98)"/>
<path d="M0 0 C1.134375 0.020625 2.26875 0.04125 3.4375 0.0625 C3.4375 2.3725 3.4375 4.6825 3.4375 7.0625 C0.7975 7.0625 -1.8425 7.0625 -4.5625 7.0625 C-4.60504356 5.06295254 -4.60330783 3.06208364 -4.5625 1.0625 C-3.5625 0.0625 -3.5625 0.0625 0 0 Z M-4.5625 7.0625 C-4.5625 10.0325 -4.5625 13.0025 -4.5625 16.0625 C-6.89544775 16.10491723 -9.22952567 16.10342937 -11.5625 16.0625 C-12.5625 15.0625 -12.5625 15.0625 -12.625 12 C-12.604375 11.030625 -12.58375 10.06125 -12.5625 9.0625 C-5.6875 7.0625 -5.6875 7.0625 -4.5625 7.0625 Z " fill="green" transform="translate(103.5625,16.9375)"/>
<path d="M0 0 C1.98 0 3.96 0 6 0 C6 2.64 6 5.28 6 8 C4.02 8 2.04 8 0 8 C0 5.36 0 2.72 0 0 Z M-8 7 C-5.36 7.33 -2.72 7.66 0 8 C0 10.64 0 13.28 0 16 C-3.3 16.33 -6.6 16.66 -10 17 C-9.34 16.67 -8.68 16.34 -8 16 C-8 13.03 -8 10.06 -8 7 Z " fill="green" transform="translate(107,65)"/>
<path d="M0 0 C2.64 0 5.28 0 8 0 C8 2.64 8 5.28 8 8 C5.36 8 2.72 8 0 8 C0 5.36 0 2.72 0 0 Z M-2.9375 7.9375 C-1.4834375 7.9684375 -1.4834375 7.9684375 0 8 C0 10.64 0 13.28 0 16 C-1.98 16 -3.96 16 -6 16 C-6.38063221 13.6739143 -6.71269945 11.33944736 -7 9 C-6 8 -6 8 -2.9375 7.9375 Z " fill="green" transform="translate(91,0)"/>
<path d="M0 0 C1.134375 0.020625 2.26875 0.04125 3.4375 0.0625 C3.7675 2.3725 4.0975 4.6825 4.4375 7.0625 C6.0875 7.3925 7.7375 7.7225 9.4375 8.0625 C9.4375 10.7025 9.4375 13.3425 9.4375 16.0625 C7.7875 16.0625 6.1375 16.0625 4.4375 16.0625 C3.08310332 13.35370665 3.37248549 11.05316732 3.4375 8.0625 C1.7359375 8.0934375 1.7359375 8.0934375 0 8.125 C-3.5625 8.0625 -3.5625 8.0625 -4.5625 7.0625 C-4.6875 4.0625 -4.6875 4.0625 -4.5625 1.0625 C-3.5625 0.0625 -3.5625 0.0625 0 0 Z " fill="green" transform="translate(103.5625,32.9375)"/>
<path d="M0 0 C1.2065625 0.0309375 1.2065625 0.0309375 2.4375 0.0625 C2.4375 2.3725 2.4375 4.6825 2.4375 7.0625 C0.4575 7.0625 -1.5225 7.0625 -3.5625 7.0625 C-3.60504356 5.06295254 -3.60330783 3.06208364 -3.5625 1.0625 C-2.5625 0.0625 -2.5625 0.0625 0 0 Z M-11.5625 7.0625 C-8.9225 7.0625 -6.2825 7.0625 -3.5625 7.0625 C-3.5625 9.7025 -3.5625 12.3425 -3.5625 15.0625 C-6.2025 15.0625 -8.8425 15.0625 -11.5625 15.0625 C-11.5625 12.4225 -11.5625 9.7825 -11.5625 7.0625 Z " fill="green" transform="translate(110.5625,16.9375)"/>
<path d="M0 0 C1.65 0 3.3 0 5 0 C5 2.64 5 5.28 5 8 C3.02 8 1.04 8 -1 8 C-0.67 5.36 -0.34 2.72 0 0 Z M-9 8 C-6.36 8 -3.72 8 -1 8 C-1 10.64 -1 13.28 -1 16 C-3.33294775 16.04241723 -5.66702567 16.04092937 -8 16 C-9 15 -9 15 -9.0625 11.4375 C-9.041875 10.303125 -9.02125 9.16875 -9 8 Z " fill="green" transform="translate(108,57)"/>
<path d="M0 0 C3.3 0 6.6 0 10 0 C10 2.64 10 5.28 10 8 C7.36 8 4.72 8 2 8 C2 10.64 2 13.28 2 16 C1.34 16 0.68 16 0 16 C0 10.72 0 5.44 0 0 Z " fill="green" transform="translate(0,0)"/>
<path d="M0 0 C2.64 0 5.28 0 8 0 C7.67 0.99 7.34 1.98 7 3 C4.69 3 2.38 3 0 3 C0 5.31 0 7.62 0 10 C-2.64 10 -5.28 10 -8 10 C-8.04241723 7.66705225 -8.04092937 5.33297433 -8 3 C-7 2 -7 2 -3.9375 1.9375 C-2.4834375 1.9684375 -2.4834375 1.9684375 -1 2 C-0.67 1.34 -0.34 0.68 0 0 Z " fill="green" transform="translate(43,103)"/>
<path d="M0 0 C-3 2 -3 2 -6 2 C-6 2.99 -6 3.98 -6 5 C-8.64 5 -11.28 5 -14 5 C-14 4.01 -14 3.02 -14 2 C-24.56 2 -35.12 2 -46 2 C-46 1.67 -46 1.34 -46 1 C-40.73473692 0.85620723 -35.46943784 0.71384112 -30.20410156 0.57275391 C-28.4156797 0.52463638 -26.62726799 0.47613999 -24.83886719 0.42724609 C-22.25718773 0.35673199 -19.67547393 0.2876143 -17.09375 0.21875 C-16.30383667 0.19687622 -15.51392334 0.17500244 -14.70007324 0.15246582 C-9.79810241 0.02336405 -4.90369186 -0.01953662 0 0 Z " fill="green" transform="translate(81,100)"/>
<path d="M0 0 C0 2.64 0 5.28 0 8 C-2.97 8.66 -5.94 9.32 -9 10 C-9 7.03 -9 4.06 -9 1 C-1.125 0 -1.125 0 0 0 Z " fill="green" transform="translate(19,72)"/>
<path d="M0 0 C3.3 0.99 6.6 1.98 10 3 C8.375 5.5 8.375 5.5 6 8 C2.875 8.4375 2.875 8.4375 0 8 C-0.66 7.34 -1.32 6.68 -2 6 C-3.96690374 5.32707499 -3.96690374 5.32707499 -6.125 4.875 C-8.043125 4.441875 -8.043125 4.441875 -10 4 C-10 3.67 -10 3.34 -10 3 C-9.36191406 2.95101562 -8.72382812 2.90203125 -8.06640625 2.8515625 C-7.24011719 2.77679688 -6.41382813 2.70203125 -5.5625 2.625 C-4.73878906 2.55539063 -3.91507813 2.48578125 -3.06640625 2.4140625 C-2.38449219 2.27742188 -1.70257813 2.14078125 -1 2 C-0.67 1.34 -0.34 0.68 0 0 Z " fill="#6F4035" transform="translate(52,51)"/>
<path d="M0 0 C2.64 0 5.28 0 8 0 C8 2.64 8 5.28 8 8 C5.6875 8.625 5.6875 8.625 3 9 C2.01 8.34 1.02 7.68 0 7 C-0.1875 3.375 -0.1875 3.375 0 0 Z " fill="green" transform="translate(91,73)"/>
<path d="M0 0 C-0.33 2.31 -0.66 4.62 -1 7 C-3.97 7 -6.94 7 -10 7 C-10.04254356 5.00045254 -10.04080783 2.99958364 -10 1 C-7.62850907 -1.37149093 -2.84018261 -1.42009131 0 0 Z " fill="green" transform="translate(28,106)"/>
<path d="M0 0 C1.134375 0.020625 2.26875 0.04125 3.4375 0.0625 C3.4375 2.7025 3.4375 5.3425 3.4375 8.0625 C0.7975 8.0625 -1.8425 8.0625 -4.5625 8.0625 C-4.60491723 5.72955225 -4.60342937 3.39547433 -4.5625 1.0625 C-3.5625 0.0625 -3.5625 0.0625 0 0 Z " fill="green" transform="translate(95.5625,56.9375)"/>
<path d="M0 0 C2.64 0 5.28 0 8 0 C8 2.64 8 5.28 8 8 C5.66705225 8.04241723 3.33297433 8.04092937 1 8 C0 7 0 7 -0.0625 3.4375 C-0.041875 2.303125 -0.02125 1.16875 0 0 Z " fill="green" transform="translate(91,41)"/>
<path d="M0 0 C2.64 0 5.28 0 8 0 C8 2.64 8 5.28 8 8 C5.66705225 8.04241723 3.33297433 8.04092937 1 8 C0 7 0 7 -0.0625 3.4375 C-0.041875 2.303125 -0.02125 1.16875 0 0 Z " fill="green" transform="translate(2,33)"/>
<path d="M0 0 C1.134375 0.020625 2.26875 0.04125 3.4375 0.0625 C3.4375 2.7025 3.4375 5.3425 3.4375 8.0625 C1.10455225 8.10491723 -1.22952567 8.10342937 -3.5625 8.0625 C-4.5625 7.0625 -4.5625 7.0625 -4.6875 4.0625 C-4.50687014 -0.27261656 -4.44520527 0.07798606 0 0 Z " fill="green" transform="translate(14.5625,56.9375)"/>
<path d="M0 0 C1.134375 0.020625 2.26875 0.04125 3.4375 0.0625 C3.4375 2.7025 3.4375 5.3425 3.4375 8.0625 C1.10455225 8.10491723 -1.22952567 8.10342937 -3.5625 8.0625 C-4.5625 7.0625 -4.5625 7.0625 -4.6875 4.0625 C-4.50687014 -0.27261656 -4.44520527 0.07798606 0 0 Z " fill="green" transform="translate(103.5625,48.9375)"/>
<path d="M0 0 C1.134375 0.020625 2.26875 0.04125 3.4375 0.0625 C3.4375 2.7025 3.4375 5.3425 3.4375 8.0625 C1.10455225 8.10491723 -1.22952567 8.10342937 -3.5625 8.0625 C-4.5625 7.0625 -4.5625 7.0625 -4.6875 4.0625 C-4.50687014 -0.27261656 -4.44520527 0.07798606 0 0 Z " fill="green" transform="translate(14.5625,40.9375)"/>
<path d="M0 0 C0.33 0 0.66 0 1 0 C1 1.65 1 3.3 1 5 C2.98 5 4.96 5 7 5 C7 7.31 7 9.62 7 12 C6.01 12.33 5.02 12.66 4 13 C3.34 13.66 2.68 14.32 2 15 C-0.08989546 9.68670645 -1.6112798 5.71271928 0 0 Z " fill="green" transform="translate(84,12)"/>
<path d="M0 0 C2.64 0 5.28 0 8 0 C8 2.64 8 5.28 8 8 C5.36 7.67 2.72 7.34 0 7 C0 4.69 0 2.38 0 0 Z " fill="green" transform="translate(75,0)"/>
<path d="M0 0 C0 2.64 0 5.28 0 8 C-2.64 8 -5.28 8 -8 8 C-8 5.69 -8 3.38 -8 1 C-1.125 0 -1.125 0 0 0 Z " fill="green" transform="translate(51,105)"/>
<path d="M0 0 C0 2.31 0 4.62 0 7 C-2.64 7 -5.28 7 -8 7 C-8 5.68 -8 4.36 -8 3 C-8.66 3 -9.32 3 -10 3 C-10 2.34 -10 1.68 -10 1 C-6.56484998 0.37542727 -3.50935186 0 0 0 Z " fill="green" transform="translate(91,98)"/>
<path d="M0 0 C2.64 0 5.28 0 8 0 C8 2.31 8 4.62 8 7 C5.36 7 2.72 7 0 7 C0 4.69 0 2.38 0 0 Z " fill="green" transform="translate(75,106)"/>
<path d="M0 0 C2.64 0 5.28 0 8 0 C8 2.31 8 4.62 8 7 C5.36 7 2.72 7 0 7 C0 4.69 0 2.38 0 0 Z " fill="green" transform="translate(67,106)"/>
<path d="M0 0 C2.64 0 5.28 0 8 0 C8 2.31 8 4.62 8 7 C5.36 7 2.72 7 0 7 C0 4.69 0 2.38 0 0 Z " fill="green" transform="translate(59,106)"/>
<path d="M0 0 C2.64 0 5.28 0 8 0 C8 2.31 8 4.62 8 7 C5.36 7 2.72 7 0 7 C0 4.69 0 2.38 0 0 Z " fill="green" transform="translate(27,0)"/>
<path d="M0 0 C1.134375 0.020625 2.26875 0.04125 3.4375 0.0625 C3.4375 2.3725 3.4375 4.6825 3.4375 7.0625 C0.7975 7.0625 -1.8425 7.0625 -4.5625 7.0625 C-4.60504356 5.06295254 -4.60330783 3.06208364 -4.5625 1.0625 C-3.5625 0.0625 -3.5625 0.0625 0 0 Z " fill="green" transform="translate(103.5625,105.9375)"/>
<path d="M0 0 C1.98 1.65 3.96 3.3 6 5 C6.66 5.33 7.32 5.66 8 6 C7.67 6.99 7.34 7.98 7 9 C4.9375 9.6875 4.9375 9.6875 3 10 C2.67 11.98 2.34 13.96 2 16 C1.34 16 0.68 16 0 16 C0 10.72 0 5.44 0 0 Z " fill="green" transform="translate(0,89)"/>
<path d="M0 0 C2.125 0.375 2.125 0.375 4 1 C4.625 3.3125 4.625 3.3125 5 6 C4.01 7.485 4.01 7.485 3 9 C-0.875 8.125 -0.875 8.125 -2 7 C-2.1875 4.5625 -2.1875 4.5625 -2 2 C-1.34 1.34 -0.68 0.68 0 0 Z " fill="#131212" transform="translate(66,31)"/>
<path d="M0 0 C6.93 0.495 6.93 0.495 14 1 C14 1.33 14 1.66 14 2 C12.02 2 10.04 2 8 2 C8 3.32 8 4.64 8 6 C5.69 6 3.38 6 1 6 C0.67 4.02 0.34 2.04 0 0 Z " fill="green" transform="translate(18,99)"/>
<path d="M0 0 C0.66 0 1.32 0 2 0 C1.979375 0.928125 1.95875 1.85625 1.9375 2.8125 C1.84230396 6.02286011 1.84230396 6.02286011 3 9 C3.99 9.33 4.98 9.66 6 10 C1.70700357 11.26264601 -0.87831311 10.62950412 -5 9 C-5 8.34 -5 7.68 -5 7 C-4.34 7 -3.68 7 -3 7 C-2.67 6.01 -2.34 5.02 -2 4 C-1.01 4 -0.02 4 1 4 C0.67 2.68 0.34 1.36 0 0 Z " fill="#93673A" transform="translate(61,44)"/>
<path d="M0 0 C1.67542976 0.28604898 3.34385343 0.61781233 5 1 C5 2.98 5 4.96 5 7 C2.625 7.625 2.625 7.625 0 8 C-0.66 7.34 -1.32 6.68 -2 6 C-1.44444444 1.44444444 -1.44444444 1.44444444 0 0 Z " fill="#101010" transform="translate(38,31)"/>
<path d="M0 0 C1.2065625 0.0309375 1.2065625 0.0309375 2.4375 0.0625 C2.4375 2.7025 2.4375 5.3425 2.4375 8.0625 C0.77138095 8.105221 -0.89632885 8.10313832 -2.5625 8.0625 C-3.5625 7.0625 -3.5625 7.0625 -3.6875 4.0625 C-3.52180824 0.08589776 -3.52180824 0.08589776 0 0 Z " fill="green" transform="translate(110.5625,32.9375)"/>
<path d="M0 0 C1.98 0 3.96 0 6 0 C6 2.64 6 5.28 6 8 C4.35 8 2.7 8 1 8 C0.67 5.36 0.34 2.72 0 0 Z " fill="green" transform="translate(107,81)"/>
<path d="M0 0 C1.125 1.75 1.125 1.75 2 4 C1.125 6.25 1.125 6.25 0 8 C-1.65 8 -3.3 8 -5 8 C-5 5.69 -5 3.38 -5 1 C-3.35 0.67 -1.7 0.34 0 0 Z " fill="green" transform="translate(24,16)"/>
<path d="M0 0 C1.65 0 3.3 0 5 0 C5 2.64 5 5.28 5 8 C3.35 8 1.7 8 0 8 C0 5.36 0 2.72 0 0 Z " fill="green" transform="translate(108,25)"/>
<path d="M0 0 C1.32 0 2.64 0 4 0 C4 2.64 4 5.28 4 8 C2.35 8 0.7 8 -1 8 C-1.04241723 5.66705225 -1.04092937 3.33297433 -1 1 C-0.67 0.67 -0.34 0.34 0 0 Z " fill="green" transform="translate(109,105)"/>
<path d="M0 0 C1.32 0 2.64 0 4 0 C4 2.64 4 5.28 4 8 C2.35 8 0.7 8 -1 8 C-1.04241723 5.66705225 -1.04092937 3.33297433 -1 1 C-0.67 0.67 -0.34 0.34 0 0 Z " fill="green" transform="translate(109,89)"/>
<path d="M0 0 C1.65 0 3.3 0 5 0 C5 2.31 5 4.62 5 7 C3.35 7 1.7 7 0 7 C0 4.69 0 2.38 0 0 Z " fill="green" transform="translate(108,9)"/>
<path d="M0 0 C0 1.32 0 2.64 0 4 C-2.64 4 -5.28 4 -8 4 C-8 3.01 -8 2.02 -8 1 C-5.07175348 0.02391783 -3.04386724 -0.08226668 0 0 Z " fill="green" transform="translate(83,101)"/>
<path d="M0 0 C1.98 0 3.96 0 6 0 C6 0.33 6 0.66 6 1 C4.35 1 2.7 1 1 1 C1 3.31 1 5.62 1 8 C2.65 8 4.3 8 6 8 C6 8.33 6 8.66 6 9 C1.23692563 9.95261487 -3.1666528 10.08333357 -8 10 C-8 9.34 -8 8.68 -8 8 C-5.36 8 -2.72 8 0 8 C0 5.36 0 2.72 0 0 Z " fill="green" transform="translate(107,8)"/>
<path d="M0 0 C0.66 0.33 1.32 0.66 2 1 C1.67 3.31 1.34 5.62 1 8 C3.31 8 5.62 8 8 8 C7.67 8.66 7.34 9.32 7 10 C2.05 10 -2.9 10 -8 10 C-8 9.34 -8 8.68 -8 8 C-5.36 8 -2.72 8 0 8 C0 5.36 0 2.72 0 0 Z " fill="green" transform="translate(18,0)"/>
<path d="M0 0 C0.99 0 1.98 0 3 0 C2.67 2.31 2.34 4.62 2 7 C1.01 7 0.02 7 -1 7 C-1.04254356 5.00045254 -1.04080783 2.99958364 -1 1 C-0.67 0.67 -0.34 0.34 0 0 Z " fill="green" transform="translate(19,25)"/>
<path d="M0 0 C1.85625 0.1546875 1.85625 0.1546875 3.75 0.3125 C3.75 0.6425 3.75 0.9725 3.75 1.3125 C2.1103125 1.7146875 2.1103125 1.7146875 0.4375 2.125 C-3.62767186 3.34176603 -3.62767186 3.34176603 -6.25 6.3125 C-6.97197162 8.91861077 -6.97197162 8.91861077 -7.25 11.3125 C-7.58 11.3125 -7.91 11.3125 -8.25 11.3125 C-8.58609819 7.69944442 -8.44511045 5.68646169 -6.75 2.4375 C-4.01112567 0.10945682 -3.41890388 0.00606189 0 0 Z " fill="#EADED0" transform="translate(67.25,22.6875)"/>
<path d="M0 0 C1.98 0.495 1.98 0.495 4 1 C4.33 2.32 4.66 3.64 5 5 C4.01 5.33 3.02 5.66 2 6 C1.01 5.01 0.02 4.02 -1 3 C-0.67 2.01 -0.34 1.02 0 0 Z " fill="#6E3A08" transform="translate(77,10)"/>
<path d="M0 0 C2.0625 0.4375 2.0625 0.4375 4 1 C4 3 4 3 2.5 4.625 C2.005 5.07875 1.51 5.5325 1 6 C0.01 5.67 -0.98 5.34 -2 5 C-1.125 1.125 -1.125 1.125 0 0 Z " fill="#6E3A08" transform="translate(29,10)"/>
<path d="M0 0 C2.625 0.375 2.625 0.375 5 1 C3.35 2.32 1.7 3.64 0 5 C-0.66 4.01 -1.32 3.02 -2 2 C-1.34 1.34 -0.68 0.68 0 0 Z " fill="green" transform="translate(4,81)"/>
<path d="M0 0 C0.66 1.32 1.32 2.64 2 4 C-4.625 4.125 -4.625 4.125 -8 3 C-7.67 2.34 -7.34 1.68 -7 1 C-4.03 1.495 -4.03 1.495 -1 2 C-0.67 1.34 -0.34 0.68 0 0 Z " fill="#B79D82" transform="translate(70,37)"/>
</svg>
